<svg xmlns="http://www.w3.org/2000/svg" style="display:none">
  <symbol id="icon-account_balance_wallet" viewBox="0 -960 960 960" fill="currentColor"><path d="M180-233v53-600 547Zm0 113q-24.75 0-42.37-17.63Q120-155.25 120-180v-600q0-24.75 17.63-42.38Q155.25-840 180-840h600q24.75 0 42.38 17.62Q840-804.75 840-780v134h-60v-134H180v600h600v-133h60v133q0 24.75-17.62 42.37Q804.75-120 780-120H180Zm358-173q-30.52 0-52.26-21.44Q464-335.89 464-366v-227q0-30.11 21.74-51.56Q507.48-666 538-666h270q30.53 0 52.26 21.44Q882-623.11 882-593v227q0 30.11-21.74 51.56Q838.53-293 808-293H538Zm284-60v-253H524v253h298Zm-124.5-81.96Q716-453.92 716-481q0-26.25-19-44.63Q678-544 652-544t-45 18.37q-19 18.38-19 44.63 0 27.08 18.74 46.04Q625.47-416 652.24-416q26.76 0 45.26-18.96Z"/></symbol>
  <symbol id="icon-account_circle" viewBox="0 -960 960 960" fill="currentColor"><path d="M222-255q63-44 125-67.5T480-346q71 0 133.5 23.5T739-255q44-54 62.5-109T820-480q0-145-97.5-242.5T480-820q-145 0-242.5 97.5T140-480q0 61 19 116t63 109Zm160.5-234.5Q343-529 343-587t39.5-97.5Q422-724 480-724t97.5 39.5Q617-645 617-587t-39.5 97.5Q538-450 480-450t-97.5-39.5ZM480-80q-82 0-155-31.5t-127.5-86Q143-252 111.5-325T80-480q0-83 31.5-155.5t86-127Q252-817 325-848.5T480-880q83 0 155.5 31.5t127 86q54.5 54.5 86 127T880-480q0 82-31.5 155t-86 127.5q-54.5 54.5-127 86T480-80Zm107.5-76Q640-172 691-212q-51-36-104-55t-107-19q-54 0-107 19t-104 55q51 40 103.5 56T480-140q55 0 107.5-16Zm-52-375.5Q557-553 557-587t-21.5-55.5Q514-664 480-664t-55.5 21.5Q403-621 403-587t21.5 55.5Q446-510 480-510t55.5-21.5ZM480-587Zm0 374Z"/></symbol>
  <symbol id="icon-alternate_email" viewBox="0 -960 960 960" fill="currentColor"><path d="M480-80q-83 0-156-31.5T197-197q-54-54-85.5-127T80-480q0-83 31.5-156T197-763q54-54 127-85.5T480-880q83 0 156 31.5T763-763q54 54 85.5 127T880-480v53q0 56-39.34 94.5Q801.31-294 744-294q-36.08 0-68.04-17.5Q644-329 627-361q-26 34-65.08 50.5Q522.83-294 480-294q-77.61 0-132.3-54Q293-402 293-480.01q0-78.02 54.5-133Q402-668 480-668t132.5 54.99Q667-558.02 667-480v53q0 30.61 22.5 51.81Q712-354 743.5-354t54-21.19Q820-396.39 820-427v-53q0-142.38-99-241.19T480-820q-142 0-241 99t-99 241q0 142 98.81 241 98.82 99 241.19 99h214v60H480Zm90-310.75q37-36.75 37-89.25 0-54-37.06-91t-90-37Q427-608 390-571t-37 91q0 52.5 37.06 89.25t90 36.75Q533-354 570-390.75Z"/></symbol>
  <symbol id="icon-badge" viewBox="0 -960 960 960" fill="currentColor"><path d="M140-80q-24 0-42-18t-18-42v-480q0-24 18-42t42-18h250v-140q0-24 18-42t42-18h60q24 0 42 18t18 42v140h250q24 0 42 18t18 42v480q0 24-18 42t-42 18H140Zm0-60h680v-480H570v30q0 28-18 44t-42 16h-60q-24 0-42-16t-18-44v-30H140v480Zm92-107h239v-14q0-18-9-32t-23-19q-32-11-50-14.5t-35-3.5q-19 0-40.5 4.5T265-312q-15 5-24 19t-9 32v14Zm336-67h170v-50H568v50Zm-175.5-65.5Q408-395 408-418t-15.5-38.5Q377-472 354-472t-38.5 15.5Q300-441 300-418t15.5 38.5Q331-364 354-364t38.5-15.5ZM568-427h170v-50H568v50ZM450-590h60v-230h-60v230Zm30 210Z"/></symbol>
  <symbol id="icon-cell_wifi" viewBox="0 -960 960 960" fill="currentColor"><path d="m240-80 640-640v640H240Zm487-60h93v-435l-93 93v342ZM442-486q-25 0-41-16.5T385-543q0-25 16-41t41-16q24 0 40.5 16t16.5 41q0 24-16.5 40.5T442-486ZM294-588l-42-42q34-41 83.5-65.5T442-720q57 0 106.5 24.5T632-630l-42 42q-28-31-65-51.5T442-660q-46 0-83 20.5T294-588Zm-88-88-42-42q51-57 125.5-89.5T442-840q78 0 152.5 32.5T720-718l-42 42q-47-49-108-76.5T442-780q-67 0-128 27.5T206-676Z"/></symbol>
  <symbol id="icon-check_circle" viewBox="0 -960 960 960" fill="currentColor"><path d="m421-298 283-283-46-45-237 237-120-120-45 45 165 166Zm59 218q-82 0-155-31.5t-127.5-86Q143-252 111.5-325T80-480q0-83 31.5-156t86-127Q252-817 325-848.5T480-880q83 0 156 31.5T763-763q54 54 85.5 127T880-480q0 82-31.5 155T763-197.5q-54 54.5-127 86T480-80Zm0-60q142 0 241-99.5T820-480q0-142-99-241t-241-99q-141 0-240.5 99T140-480q0 141 99.5 240.5T480-140Zm0-340Z"/></symbol>
  <symbol id="icon-close" viewBox="0 -960 960 960" fill="currentColor"><path d="m249-207-42-42 231-231-231-231 42-42 231 231 231-231 42 42-231 231 231 231-42 42-231-231-231 231Z"/></symbol>
  <symbol id="icon-credit_card" viewBox="0 -960 960 960" fill="currentColor"><path d="M880-740v520q0 24-18 42t-42 18H140q-24 0-42-18t-18-42v-520q0-24 18-42t42-18h680q24 0 42 18t18 42ZM140-631h680v-109H140v109Zm0 129v282h680v-282H140Zm0 282v-520 520Z"/></symbol>
  <symbol id="icon-description" viewBox="0 -960 960 960" fill="currentColor"><path d="M319-250h322v-60H319v60Zm0-170h322v-60H319v60ZM220-80q-24 0-42-18t-18-42v-680q0-24 18-42t42-18h361l219 219v521q0 24-18 42t-42 18H220Zm331-554v-186H220v680h520v-494H551ZM220-820v186-186 680-680Z"/></symbol>
  <symbol id="icon-error" viewBox="0 -960 960 960" fill="currentColor"><path d="M503.5-289.48q9.5-9.48 9.5-23.5t-9.48-23.52q-9.48-9.5-23.5-9.5t-23.52 9.48q-9.5 9.48-9.5 23.5t9.48 23.52q9.48 9.5 23.5 9.5t23.52-9.48ZM453-433h60v-253h-60v253Zm27.27 353q-82.74 0-155.5-31.5Q252-143 197.5-197.5t-86-127.34Q80-397.68 80-480.5t31.5-155.66Q143-709 197.5-763t127.34-85.5Q397.68-880 480.5-880t155.66 31.5Q709-817 763-763t85.5 127Q880-563 880-480.27q0 82.74-31.5 155.5Q817-252 763-197.68q-54 54.31-127 86Q563-80 480.27-80Zm.23-60Q622-140 721-239.5t99-241Q820-622 721.19-721T480-820q-141 0-240.5 98.81T140-480q0 141 99.5 240.5t241 99.5Zm-.5-340Z"/></symbol>
  <symbol id="icon-fingerprint" viewBox="0 -960 960 960" fill="currentColor"><path d="M481-779q108 0 203.5 46T843-601q3 5 2.5 8t-3.5 6q-3 3-7.5 3t-8.5-5q-59-82-150.5-126T481-759q-103 0-193 44.5T138-589q-4 5-7.5 6t-7.5-1q-4-2-4-6.5t2-8.5q62-86 157-133t203-47Zm0 96q136 0 233.5 90T812-371q0 46-34 78t-82 32q-49 0-84-32t-35-78q0-39-28.5-65T481-462q-39 0-68 26t-29 65q0 104 63 173.5T604-100q6 2 7.5 5t.5 7q-1 5-4 7t-8 0q-103-26-169.5-103T364-371q0-47 34.5-79t82.5-32q48 0 82.5 32t34.5 79q0 38 29.5 64t68.5 26q38 0 66.5-26t28.5-64q0-123-91.5-206T481-660q-127 0-218.5 83T171-371q0 24 5.5 62.5T200-221q2 5 0 7.5t-5 4.5q-4 2-8.5 1t-6.5-6q-13-38-20.5-77.5T152-371q0-129 98-220.5T481-683Zm0-197q65 0 127.5 16T728-819q5 2 5.5 6t-1.5 7q-2 3-5.5 5t-8.5 0q-55-27-115-42.5T481-859q-62 0-121 14.5T247-801q-5 2-7.5.5T235-805q-2-2-2-6t3-6q57-31 119.5-47T481-880Zm0 298q92 0 158.5 61T706-371q0 5-2.5 7.5T696-361q-5 0-8-2.5t-3-7.5q0-81-60.5-136T481-562q-83 0-142.5 55T279-371q0 85 29.5 145T396-106q4 4 3.5 7.5T396-92q-2 2-6.5 3.5T381-92q-58-60-90.5-126T258-371q0-89 65.5-150T481-582Zm-1 200q5 0 7.5 3t2.5 8q0 81 59.5 133.5T687-185q8 0 19-1t24-3q5-1 8 1.5t4 5.5q1 4-.5 7t-6.5 4q-18 5-31.5 5.5t-16.5.5q-88 0-152.5-58.5T470-371q0-5 2.5-8t7.5-3Z"/></symbol>
  <symbol id="icon-history" viewBox="0 -960 960 960" fill="currentColor"><path d="M477-120q-149 0-253-105.5T120-481h60q0 125 86 213t211 88q127 0 215-89t88-216q0-124-89-209.5T477-780q-68 0-127.5 31T246-667h105v60H142v-208h60v106q52-61 123.5-96T477-840q75 0 141 28t115.5 76.5Q783-687 811.5-622T840-482q0 75-28.5 141t-78 115Q684-177 618-148.5T477-120Zm128-197L451-469v-214h60v189l137 134-43 43Z"/></symbol>
  <symbol id="icon-home" viewBox="0 -960 960 960" fill="currentColor"><path d="M220-180h150v-250h220v250h150v-390L480-765 220-570v390Zm-60 60v-480l320-240 320 240v480H530v-250H430v250H160Zm320-353Z"/></symbol>
  <symbol id="icon-info" viewBox="0 -960 960 960" fill="currentColor"><path d="M453-280h60v-240h-60v240Zm50.5-323.2q9.5-9.2 9.5-22.8 0-14.45-9.48-24.22-9.48-9.78-23.5-9.78t-23.52 9.78Q447-640.45 447-626q0 13.6 9.48 22.8 9.48 9.2 23.5 9.2t23.52-9.2ZM480.27-80q-82.74 0-155.5-31.5Q252-143 197.5-197.5t-86-127.34Q80-397.68 80-480.5t31.5-155.66Q143-709 197.5-763t127.34-85.5Q397.68-880 480.5-880t155.66 31.5Q709-817 763-763t85.5 127Q880-563 880-480.27q0 82.74-31.5 155.5Q817-252 763-197.68q-54 54.31-127 86Q563-80 480.27-80Zm.23-60Q622-140 721-239.5t99-241Q820-622 721.19-721T480-820q-141 0-240.5 98.81T140-480q0 141 99.5 240.5t241 99.5Zm-.5-340Z"/></symbol>
  <symbol id="icon-lock" viewBox="0 -960 960 960" fill="currentColor"><path d="M220-80q-24.75 0-42.37-17.63Q160-115.25 160-140v-434q0-24.75 17.63-42.38Q195.25-634 220-634h70v-96q0-78.85 55.61-134.42Q401.21-920 480.11-920q78.89 0 134.39 55.58Q670-808.85 670-730v96h70q24.75 0 42.38 17.62Q800-598.75 800-574v434q0 24.75-17.62 42.37Q764.75-80 740-80H220Zm0-60h520v-434H220v434Zm314.5-162.03Q557-324.06 557-355q0-30-22.67-54.5t-54.5-24.5q-31.83 0-54.33 24.5t-22.5 55q0 30.5 22.67 52.5t54.5 22q31.83 0 54.33-22.03ZM350-634h260v-96q0-54.17-37.88-92.08-37.88-37.92-92-37.92T388-822.08q-38 37.91-38 92.08v96ZM220-140v-434 434Z"/></symbol>
  <symbol id="icon-lock_reset" viewBox="0 -960 960 960" fill="currentColor"><path d="M480-80q-88 0-164-35t-130.5-94q-54.5-59-83-138T81-513h61q-7 75 16 142.5t69.5 119Q274-200 339-169.5T480-139q142 0 241-99t99-241q0-142-99-241t-241-99q-100 0-180.5 51.5T177-633h129v60H80v-227h60v109q54-86 142.5-137.5T480-880q83 0 156 31.5T763-763q54 54 85.5 127T880-480q0 83-31.5 156T763-197q-54 54-127 85.5T480-80Zm-80-245q-14 0-24.5-10.5T365-360v-120q0-14 11.5-24.5T405-515v-45q0-31 22-53t53-22q31 0 53 22t22 53v45q17 0 28.5 10.5T595-480v120q0 14-10.5 24.5T560-325H400Zm35-190h90v-45q0-19-13-32t-32-13q-19 0-32 13t-13 32v45Z"/></symbol>
  <symbol id="icon-login" viewBox="0 -960 960 960" fill="currentColor"><path d="M481-120v-60h299v-600H481v-60h299q24 0 42 18t18 42v600q0 24-18 42t-42 18H481Zm-55-185-43-43 102-102H120v-60h363L381-612l43-43 176 176-174 174Z"/></symbol>
  <symbol id="icon-logout" viewBox="0 -960 960 960" fill="currentColor"><path d="M180-120q-24 0-42-18t-18-42v-600q0-24 18-42t42-18h299v60H180v600h299v60H180Zm486-185-43-43 102-102H360v-60h363L621-612l43-43 176 176-174 174Z"/></symbol>
  <symbol id="icon-mail" viewBox="0 -960 960 960" fill="currentColor"><path d="M140-160q-24 0-42-18t-18-42v-520q0-24 18-42t42-18h680q24 0 42 18t18 42v520q0 24-18 42t-42 18H140Zm340-302L140-685v465h680v-465L480-462Zm0-60 336-218H145l335 218ZM140-685v-55 520-465Z"/></symbol>
  <symbol id="icon-menu" viewBox="0 -960 960 960" fill="currentColor"><path d="M120-240v-60h720v60H120Zm0-210v-60h720v60H120Zm0-210v-60h720v60H120Z"/></symbol>
  <symbol id="icon-mobile_friendly" viewBox="0 -960 960 960" fill="currentColor"><path d="M501-540ZM80-160v-60h421v60H80Zm100-120q-24 0-42-18t-18-42v-400q0-24 18-42t42-18h600q24 0 42 18t18 42H180v400h321v60H180Zm640 60v-400H621v400h199Zm-214 60q-18 0-31.5-13.5T561-205v-430q0-18 13.5-31.5T606-680h229q18 0 31.5 13.5T880-635v430q0 18-13.5 31.5T835-160H606Zm115-360q12 0 21-9t9-21q0-12-9-21t-21.48-9Q709-580 700-571t-9 21.48q0 11.52 9 20.52t21 9Zm0 100Z"/></symbol>
  <symbol id="icon-notifications" viewBox="0 -960 960 960" fill="currentColor"><path d="M160-200v-60h80v-304q0-84 49.5-150.5T420-798v-22q0-25 17.5-42.5T480-880q25 0 42.5 17.5T540-820v22q81 17 130.5 83.5T720-564v304h80v60H160Zm320-302Zm0 422q-33 0-56.5-23.5T400-160h160q0 33-23.5 56.5T480-80ZM300-260h360v-304q0-75-52.5-127.5T480-744q-75 0-127.5 52.5T300-564v304Z"/></symbol>
  <symbol id="icon-payments" viewBox="0 -960 960 960" fill="currentColor"><path d="M540-420q-50 0-85-35t-35-85q0-50 35-85t85-35q50 0 85 35t35 85q0 50-35 85t-85 35ZM220-280q-24.75 0-42.37-17.63Q160-315.25 160-340v-400q0-24.75 17.63-42.38Q195.25-800 220-800h640q24.75 0 42.38 17.62Q920-764.75 920-740v400q0 24.75-17.62 42.37Q884.75-280 860-280H220Zm100-60h440q0-42 29-71t71-29v-200q-42 0-71-29t-29-71H320q0 42-29 71t-71 29v200q42 0 71 29t29 71Zm480 180H100q-24.75 0-42.37-17.63Q40-195.25 40-220v-460h60v460h700v60ZM220-340v-400 400Z"/></symbol>
  <symbol id="icon-person" viewBox="0 -960 960 960" fill="currentColor"><path d="M372-523q-42-42-42-108t42-108q42-42 108-42t108 42q42 42 42 108t-42 108q-42 42-108 42t-108-42ZM160-160v-94q0-38 19-65t49-41q67-30 128.5-45T480-420q62 0 123 15.5T731-360q31 14 50 41t19 65v94H160Zm60-60h520v-34q0-16-9.5-30.5T707-306q-64-31-117-42.5T480-360q-57 0-111 11.5T252-306q-14 7-23 21.5t-9 30.5v34Zm324.5-346.5Q570-592 570-631t-25.5-64.5Q519-721 480-721t-64.5 25.5Q390-670 390-631t25.5 64.5Q441-541 480-541t64.5-25.5ZM480-631Zm0 411Z"/></symbol>
  <symbol id="icon-phone" viewBox="0 -960 960 960" fill="currentColor"><path d="M795-120q-116 0-236.5-56T335-335Q232-438 176-558.5T120-795q0-19.29 12.86-32.14Q145.71-840 165-840h140q14 0 24 10t14 25l26.93 125.64Q372-665 369.5-653.5t-10.73 19.73L259-533q26 44 55 82t64 72q37 38 78 69.5t86 55.5l95-98q10-11 23.15-15 13.15-4 25.85-2l119 26q15 4 25 16.04 10 12.05 10 26.96v135q0 19.29-12.86 32.14Q814.29-120 795-120ZM229-588l81-82-23-110H180q2 42 13.5 88.5T229-588Zm369 363q41 19 89 31t93 14v-107l-103-21-79 83ZM229-588Zm369 363Z"/></symbol>
  <symbol id="icon-phone_iphone" viewBox="0 -960 960 960" fill="currentColor"><path d="M501-540ZM80-160v-60h421v60H80Zm100-120q-24 0-42-18t-18-42v-400q0-24 18-42t42-18h600q24 0 42 18t18 42H180v400h321v60H180Zm640 60v-400H621v400h199Zm-214 60q-18 0-31.5-13.5T561-205v-430q0-18 13.5-31.5T606-680h229q18 0 31.5 13.5T880-635v430q0 18-13.5 31.5T835-160H606Zm115-360q12 0 21-9t9-21q0-12-9-21t-21.48-9Q709-580 700-571t-9 21.48q0 11.52 9 20.52t21 9Zm0 100Z"/></symbol>
  <symbol id="icon-progress_activity" viewBox="0 -960 960 960" fill="currentColor"><path d="M323-111q-73-31-127-85t-85-127q-31-73-31-157t31-157q31-73 85-127t127-85q73-31 157-31 12 0 21 9t9 21q0 12-9 21t-21 9q-141 0-240.5 99.5T140-480q0 141 99.5 240.5T480-140q141 0 240.5-99.5T820-480q0-12 9-21t21-9q12 0 21 9t9 21q0 84-31 157t-85 127q-54 54-127 85T480-80q-84 0-157-31Z"/></symbol>
  <symbol id="icon-sim_card" viewBox="0 -960 960 960" fill="currentColor"><path d="M274-193h60v-60h-60v60Zm0-156h60v-166h-60v166Zm174 156h60v-170h-60v170Zm0-262h60v-60h-60v60Zm182 262h60v-60h-60v60Zm0-156h60v-166h-60v166ZM220-80q-24 0-42-18t-18-42v-501l239-239h341q24 0 42 18t18 42v680q0 24-18 42t-42 18H220Zm0-60h520v-680H426L220-613.88V-140Zm0 0h520-520Z"/></symbol>
  <symbol id="icon-sports_esports" viewBox="0 -960 960 960" fill="currentColor"><path d="M147-200q-38 0-59.5-25.5T72-296l48-335q8-53 49.5-91t94.5-38h433q53 0 94.5 38t49.5 91l47 335q6 45-15.5 70.5T813-200q-23 0-39-7.5T747-226L643-330H317L213-226q-11 11-27 18.5t-39 7.5Zm18-64 126-126h378l126 126q5 5 18 9 9 0 13.5-9t2.5-18l-48-339q-5-35-29.5-57T697-700H263q-30 0-54.5 22T179-621l-48 339q-2 9 2.5 18t13.5 9q7 0 18-9Zm563-188q12-12 12-28t-12-28q-12-12-28-12t-28 12q-12 12-12 28t12 28q12 12 28 12t28-12Zm-85-130q12-12 12-28t-12-28q-12-12-28-12t-28 12q-12 12-12 28t12 28q12 12 28 12t28-12ZM300-445h50v-75h75v-50h-75v-75h-50v75h-75v50h75v75Zm180-33Z"/></symbol>
  <symbol id="icon-sync_alt" viewBox="0 -960 960 960" fill="currentColor"><path d="M271-120 80-311l192-192 42 42-120 120h646v60H194l119 119-42 42Zm418-337-42-42 119-119H120v-60h646L646-798l42-42 192 192-191 191Z"/></symbol>
  <symbol id="icon-visibility" viewBox="0 -960 960 960" fill="currentColor"><path d="M600.5-379.5Q650-429 650-500t-49.5-120.5Q551-670 480-670t-120.5 49.5Q310-571 310-500t49.5 120.5Q409-330 480-330t120.5-49.5Zm-200-41Q368-453 368-500t32.5-79.5Q433-612 480-612t79.5 32.5Q592-547 592-500t-32.5 79.5Q527-388 480-388t-79.5-32.5ZM216-283Q98-366 40-500q58-134 176-217t264-83q146 0 264 83t176 217q-58 134-176 217t-264 83q-146 0-264-83Zm264-217Zm222.5 174.5Q804-391 857-500q-53-109-154.5-174.5T480-740q-121 0-222.5 65.5T102-500q54 109 155.5 174.5T480-260q121 0 222.5-65.5Z"/></symbol>
  <symbol id="icon-visibility_off" viewBox="0 -960 960 960" fill="currentColor"><path d="m629-419-44-44q26-71-27-118t-115-24l-44-44q17-11 38-16t43-5q71 0 120.5 49.5T650-500q0 22-5.5 43.5T629-419Zm129 129-40-40q49-36 85.5-80.5T857-500q-50-111-150-175.5T490-740q-42 0-86 8t-69 19l-46-47q35-16 89.5-28T485-800q143 0 261.5 81.5T920-500q-26 64-67 117t-95 93Zm58 226L648-229q-35 14-79 21.5t-89 7.5q-146 0-265-81.5T40-500q20-52 55.5-101.5T182-696L56-822l42-43 757 757-39 44ZM223-654q-37 27-71.5 71T102-500q51 111 153.5 175.5T488-260q33 0 65-4t48-12l-64-64q-11 5-27 7.5t-30 2.5q-70 0-120-49t-50-121q0-15 2.5-30t7.5-27l-97-97Zm305 142Zm-116 58Z"/></symbol>
</svg>

